<svg xmlns="http://www.w3.org/2000/svg" viewBox="0 0 26.31 32"><defs><style>.cls-1{fill:#dfedf0;}.cls-2{fill:#ccdae1;}.cls-3{fill:#3e1f53;}.cls-4{fill:#5b3876;}.cls-5{fill:#fcfcf8;}.cls-6{fill:#f05b6f;}</style></defs><title>astronaut</title><g id="Calque_2" data-name="Calque 2"><g id="Calque_1-2" data-name="Calque 1"><path class="cls-1" d="M20.05,18.65l4.44-5.1s1.56-.84,1.74-1.91c0,0,0-.42-.84.4,0,0,.91-.75.84-1.08s-.66.14-.94.42,1.3-1.18.82-1.53-1,.82-1.12.94.91-1,.37-1.11-.75.81-1.09.81c0,0,.29-.64,0-.74s-.37-.05-.61.5c-.12.28-.41,0-.57.7l0,.15a7,7,0,0,1-2.85.73,13.09,13.09,0,0,1-3.47,2.38s-4,1.59-9.5-.89a17.16,17.16,0,0,1-3.58-1.56s.28-1.14,0-1.14-.34.08-.34.65c0,0,.12-1.44-.57-1.21a2,2,0,0,0-.25,1s.12-1.56-.47-1.35-.13,1.13-.13,1.44c0,0-.37-1.34-.7-1s-.12,1.2,0,1.31,0,.69-.19.88-.92.07-.92.45c0,0,.07.64,1,.52,0,0,.4-.1,1.66,1.48S6,17.05,6.18,18.25a43.75,43.75,0,0,1,0,5.13s-.85,4.36-2.1,5.45c-2.9,2.51,1.66,3.38,3,2.08s2.55-3.16,3.55-3.78,3-.44,4-.17,2.48,2,3.21,3.57,3.19,1.78,3.9.69-1-2.11-1.24-2.72a35.73,35.73,0,0,1-.58-5.76C19.86,21.79,19.72,19,20.05,18.65Z"/><path class="cls-2" d="M7,29.05s1.11-2.49,2.19-2.86,4.33-.24,5.43-.52,3.1,3.37,3.67,3.94h-1A6.6,6.6,0,0,0,14.59,27a5.66,5.66,0,0,0-4.32.4c-.54.49-1.87,2-1.87,2S7.16,29.49,7,29.05Z"/><path class="cls-2" d="M22.93,15.35,22.24,14s-3.33,2.15-3.68,3.21a28.86,28.86,0,0,0-.49,6.58c.11,1.77,1.13,5.62,1.84,5.62H20l.63-.63s-.54-.47-.58-3.48-.43-6,0-6.47S22.93,15.35,22.93,15.35Z"/><path class="cls-2" d="M3.63,13.84S7.46,15,7.46,17.21s.4,7.7-.52,9.61a10.37,10.37,0,0,1-1.23,2.23L4.86,27.6a14.43,14.43,0,0,0,1.35-5.45c0-2.71.35-4-1-5.17L3.31,15.39S2.9,14.36,3.63,13.84Z"/><path class="cls-2" d="M21.94,7.27c0,5.46-3.94,7.65-8.79,7.65s-9.07-2.19-8.8-7.65C4.65,1.56,8,0,12.8,0S21.94,3,21.94,7.27Z"/><path class="cls-1" d="M21.23,7.08c0,5.32-3.78,7.46-8.43,7.46S4.09,12.4,4.37,7.08C4.65,1.53,7.82,0,12.49,0S21.23,3,21.23,7.08Z"/><path class="cls-3" d="M19.84,6.94c0,4.13-3.47,5.79-7.75,5.79s-8-1.65-7.75-5.79c.26-4.3,3.17-5.5,7.45-5.5S19.84,3.73,19.84,6.94Z"/><path class="cls-4" d="M18.68,6.8c0,3.71-3.21,5.19-7.16,5.19S4.13,10.49,4.35,6.8c.25-3.87,2.94-4.93,6.89-4.93S18.68,3.92,18.68,6.8Z"/><path class="cls-5" d="M9.9,5.13A1.56,1.56,0,0,1,8.17,6.82,1.54,1.54,0,0,1,6.44,5.13,1.44,1.44,0,0,1,8.1,3.54,1.7,1.7,0,0,1,9.9,5.13Z"/><path class="cls-4" d="M6.11,23.62a36.36,36.36,0,0,0,6.88.84,17.93,17.93,0,0,0,6.87-1.36.68.68,0,0,0,.1-.85c-.24-.24-3.34,1.18-6.92,1.18a36.24,36.24,0,0,1-6.85-.81C5.88,22.62,6.05,23.57,6.11,23.62Z"/><path class="cls-4" d="M5,27.28a3.37,3.37,0,0,0,1.27,1.41,4,4,0,0,0,2.25.5,11.41,11.41,0,0,1-1.7,2,3,3,0,0,1-3.22.09s-1.53-.78-.37-1.84A4.47,4.47,0,0,0,5,27.28Z"/><path class="cls-4" d="M17,29.3a2.77,2.77,0,0,0,2.29.1c1.18-.52,1.11-.88,1.11-.88l.78.92c.28.31,1.18,1.09.47,1.8s-1.58,1.23-3.26.1A5.89,5.89,0,0,1,17,29.3Z"/><path class="cls-4" d="M5.26,17s-.73-2.55,1-4c0,0,0-.19-.5-.19a4,4,0,0,0-1,3.8S5,17,5.26,17Z"/><path class="cls-4" d="M4.39,16.27a4.43,4.43,0,0,1,1.2-3.57.36.36,0,0,0-.37-.19A4.53,4.53,0,0,0,4,15.94S4.18,16.27,4.39,16.27Z"/><path class="cls-4" d="M21.7,16.77s-2.08-2-1.68-4.18c0,0-.38.37-.49.45a6.94,6.94,0,0,0,1.61,4.37S21.7,17.1,21.7,16.77Z"/><path class="cls-4" d="M22,16.46a5.22,5.22,0,0,1-1.49-4.4l.19-.25.36-.05A5,5,0,0,0,22.38,16,.62.62,0,0,1,22,16.46Z"/><path class="cls-2" d="M7.48,14.15s.78,3.58,3.43,3.58,6.23,1.42,7.53-3.14c0,0,.07-.59-.7-.16-1.75,1-7.21,1.25-9.5-.24C8.22,14.17,7.48,13.67,7.48,14.15Z"/><path class="cls-4" d="M2.58,14.66s-.08-.73.91-1.62,1-.78,1-.78-.84-.48-.8-.62.38-1-.09-1.08c0,0-.21,0-.27.28,0,0,.15-.87-.39-.87s-.41.68-.41.78S2.78,9.4,2,9.68c0,0-.56.19-.16,1.2,0,0-.15-1.08-.76-.72s.16,1.13.16,1.6a.8.8,0,0,1-.75.73c-.24,0-.52,0-.52.4s.68.6,1.18.5S2.1,14.66,2.58,14.66Z"/><path class="cls-4" d="M22.38,11.38s-.28.5.41,1.79,1.06,1,1.13,1,.24-.37.59-.52,1.8-1.36,1.8-1.88-.2-.43-.66,0c0,0,.84-.73.58-1s-.68.35-.87.52c0,0,1.28-1.13.73-1.54s-.64.57-1.06.92c0,0,.95-.94.36-1.15,0,0-.29-.17-.69.4,0,0-.24.43-.42.47,0,0,.37-.68-.08-.82s-.49.4-.61.61-.26-.1-.56.54S22.6,11.15,22.38,11.38Z"/><path class="cls-3" d="M24.06,11.15s-.56.68-.19,1.2,1,.85,1.32.42-.68-.47-.75-1.15S24.2,11,24.06,11.15Z"/><path class="cls-6" d="M16.5,21.47a1.18,1.18,0,0,1-1.18,1.18H10.48A1.18,1.18,0,0,1,9.3,21.47V19.25a1.18,1.18,0,0,1,1.18-1.18h4.84a1.18,1.18,0,0,1,1.18,1.18Z"/></g></g></svg>