<svg xmlns="http://www.w3.org/2000/svg" viewBox="0 0 1940.22 1086.52"><defs><style>.cls-1{fill:#26136e;}.cls-2{fill:#331178;}.cls-10,.cls-11,.cls-12,.cls-13,.cls-14,.cls-15,.cls-16,.cls-17,.cls-18,.cls-19,.cls-2,.cls-20,.cls-21,.cls-22,.cls-23,.cls-24,.cls-25,.cls-26,.cls-27,.cls-28,.cls-29,.cls-3,.cls-30,.cls-31,.cls-32,.cls-33,.cls-34,.cls-35,.cls-36,.cls-37,.cls-38,.cls-39,.cls-4,.cls-40,.cls-41,.cls-42,.cls-43,.cls-5,.cls-6,.cls-7,.cls-8,.cls-9{fill-rule:evenodd;}.cls-3{fill:#3a1580;}.cls-4{fill:#44158f;}.cls-5{fill:#521b96;}.cls-6{fill:#341270;}.cls-7{fill:#3d1273;}.cls-8{fill:#491279;}.cls-9{fill:#55147f;}.cls-10{fill:#23196e;}.cls-11{fill:#211f6f;}.cls-12{fill:#1d2870;}.cls-13{fill:#1a2e72;}.cls-14{fill:#241c6d;}.cls-15{fill:#23236d;}.cls-16{fill:#222c6d;}.cls-17{fill:#22356e;}.cls-18{fill:#25176d;}.cls-19{fill:#23226d;}.cls-20{fill:#22296d;}.cls-21{fill:#69f;}.cls-22{fill:#66bdff;}.cls-23{fill:#426ec7;}.cls-24{fill:#2f83c4;}.cls-25{fill:#df99ff;}.cls-26{fill:#f66;}.cls-27{fill:#c43f57;}.cls-28{fill:#96f;}.cls-29{fill:#321791;}.cls-30{fill:#220b78;}.cls-31{fill:#7c1370;}.cls-32{fill:#be2385;}.cls-33{fill:#6838a4;}.cls-34{fill:#794dae;}.cls-35{fill:#9e7ec5;}.cls-36{fill:#fff;}.cls-37{fill:#366;}.cls-38{fill:#699;}.cls-39{fill:#ffc;}.cls-40{fill:#ff6;}.cls-41{fill:#fc0;}.cls-42{fill:#039;}.cls-43{fill:#082c73;}</style></defs><title>background</title><g id="Calque_2" data-name="Calque 2"><g id="Layer_1" data-name="Layer 1"><rect class="cls-1" width="1940.22" height="1086.52"/><path class="cls-2" d="M970.11,900c196.57,0,356.78-160.32,356.78-356.78S1166.68,186.48,970.11,186.48,613.33,346.8,613.33,543.26,773.65,900,970.11,900Z"/><path class="cls-3" d="M970.11,852c170.07,0,308.77-138.7,308.77-308.77s-138.7-308.77-308.77-308.77S661.34,373.19,661.34,543.26,800,852,970.11,852Z"/><path class="cls-4" d="M970.11,777.42c128.94,0,234.16-105.22,234.16-234.16S1099.05,309.1,970.11,309.1,736,414.32,736,543.26,841.17,777.42,970.11,777.42Z"/><path class="cls-5" d="M970.11,703.47c88.25,0,160.21-72,160.21-160.21s-72-160.21-160.21-160.21S809.9,455,809.9,543.26s72,160.21,160.21,160.21Z"/><path class="cls-6" d="M239.26,331.61c73.84,0,134-60.31,134-134.15s-60.2-134-134-134-134.16,60.2-134.16,134,60.32,134.15,134.16,134.15Z"/><path class="cls-7" d="M239.26,313.54c63.86,0,116-52.11,116-116.08s-52.11-116-116-116-116.08,52.11-116.08,116S175.4,313.54,239.26,313.54Z"/><path class="cls-8" d="M239.26,285.49c48.45,0,87.92-39.58,87.92-88a88.13,88.13,0,0,0-87.92-87.92c-48.45,0-88,39.58-88,87.92s39.58,88,88,88Z"/><path class="cls-9" d="M239.26,257.66a60.2,60.2,0,1,0-60.21-60.2,60.33,60.33,0,0,0,60.21,60.2Z"/><path class="cls-10" d="M1712.49,1063.46c109.43,0,198.57-89.25,198.57-198.57s-89.25-198.67-198.57-198.67-198.68,89.25-198.68,198.67,89.14,198.57,198.68,198.57Z"/><path class="cls-11" d="M1712.49,1036.74c94.68,0,171.85-77.16,171.85-171.85s-77.17-171.84-171.85-171.84-171.85,77.16-171.85,171.84,77.17,171.85,171.85,171.85Z"/><path class="cls-12" d="M1712.49,995.17c71.73,0,130.27-58.54,130.27-130.28s-58.54-130.38-130.27-130.38-130.38,58.54-130.38,130.38,58.54,130.28,130.38,130.28Z"/><path class="cls-13" d="M1712.49,954a89.14,89.14,0,1,0-89.14-89.14c-.11,49.12,39.92,89.14,89.14,89.14Z"/><path class="cls-6" d="M1616.48,278.28a50.67,50.67,0,1,0-50.67-50.66,50.72,50.72,0,0,0,50.67,50.66Z"/><path class="cls-7" d="M1616.48,271.52a43.85,43.85,0,1,0-43.8-43.79,44,44,0,0,0,43.8,43.79Z"/><path class="cls-8" d="M1616.48,260.88a33.27,33.27,0,1,0-33.26-33.26,33.36,33.36,0,0,0,33.26,33.26Z"/><path class="cls-9" d="M1616.48,250.34a22.73,22.73,0,1,0-22.73-22.72,22.76,22.76,0,0,0,22.73,22.72Z"/><path class="cls-14" d="M177.39,1041.51a98.34,98.34,0,1,0,0-196.68c-54.21,0-98.45,44.23-98.45,98.34s44.24,98.34,98.45,98.34Z"/><path class="cls-15" d="M177.39,1028.2a85.15,85.15,0,1,0-85.15-85.14,85.31,85.31,0,0,0,85.15,85.14Z"/><path class="cls-16" d="M177.39,1007.69a64.53,64.53,0,1,0-64.52-64.52,64.58,64.58,0,0,0,64.52,64.52Z"/><path class="cls-17" d="M177.39,987.29a44.13,44.13,0,1,0-44.12-44.12,44.24,44.24,0,0,0,44.12,44.12Z"/><path class="cls-18" d="M364.21,528.85A38.31,38.31,0,1,0,326,490.49a38.45,38.45,0,0,0,38.25,38.36Z"/><path class="cls-14" d="M364.21,523.75a33.15,33.15,0,1,0-33.15-33.15,33.17,33.17,0,0,0,33.15,33.15Z"/><path class="cls-19" d="M364.21,515.65A25.17,25.17,0,1,0,339,490.49a25.21,25.21,0,0,0,25.17,25.16Z"/><path class="cls-20" d="M364.21,507.78A17.19,17.19,0,1,0,347,490.6a17.2,17.2,0,0,0,17.19,17.18Z"/><path class="cls-21" d="M317.53,696.26a56.77,56.77,0,1,0-56.76-56.76,56.87,56.87,0,0,0,56.76,56.76Z"/><path class="cls-22" d="M356.56,598.14a68.05,68.05,0,0,1,6,6.54c-4.32.11-8.64.11-13.08.11A673.26,673.26,0,0,1,275.62,601c.78-.88,1.55-1.66,2.44-2.55,11.09.56,22.95.78,35,.78,15.41,0,30-.33,43.46-1.11Zm13,18.29c.33.78.66,1.67,1,2.44-14.64,16.08-46.9,33.49-83.6,43.8-6.54,1.77-12.86,3.32-19,4.54a55.59,55.59,0,0,1-5.65-14.63,220.24,220.24,0,0,0,42.46-7.76c25.06-7,48.12-17.3,64.75-28.39Zm3.1,37.26a10.92,10.92,0,0,1-.55,1.77,263.17,263.17,0,0,1-38.58,14.08c-22.62,6.43-43,8.87-58.21,7.87a63.41,63.41,0,0,1-6.1-8.2c14.86,5,41.91,3.66,73.18-5.21a261.3,261.3,0,0,0,30.26-10.31ZM353.9,683.18a55.05,55.05,0,0,1-16.63,9.53c-15.08-.11-29.39-.55-42.58-1.33a56.81,56.81,0,0,1-17.07-11.64,697.32,697.32,0,0,0,71.18,3.44Z"/><path class="cls-23" d="M358.55,678.85a56.8,56.8,0,1,1-41-96.12L298.9,595.15l3.11,5.32-4.33,10.75,3.55,14.08,7,4.11.88,7.87-6.32,8.2-12.19-2.1-.56.55-7.76,13.86,5.66,10.09.55.11,15.3.66,10.09-6.32,3.88,4.66,4.77.89-1.22,4.88H322l11.64,1c2.21-1.1.66-.33.88-.55l7.43-8.2-10.31-6.32,2.22-5.33,10.2-3.43,4.65,8-2.88,7.21,3.44,4.65-9.54,8.1-3.77-1.22-1.66,2.77,6.65,4.1,10.76-5.88ZM353.78,648l-5-.88-.12-3.33,4.22-1.22.22-.11,2.77,2.11-.33,1.33Zm-59.64,17.41-.89-.89,1-2.1,1,.77ZM307.33,652l-2.22-1.22-1.22,1v1.89l2.22.88,2.22-2.77Zm20.51-54.54L326.51,595l1-1.11,1.88.33v2.88Zm-12.08,16.4-2.22-2.77,1.55-.88,2.22.66.33,2.22Zm13,7.21-10.65.33-2.21,5.77,4.32,3.77,5.66-3.55L325,624.2l3.1-.67Zm-38-20.84-5.32,1.33-1.89,6.65,7.32,3.44,3.44-5.44Zm-10.53,34.48-.56,1.77,1.78,1.33.88-2.44Zm1.77,7.65-5.76-1.55-2.78,5,4.77,3.43,7-5.87Zm11.64-14.3,3.44-.34-.11,2.22h-3.22v-1.88ZM285.38,618l-3.77-.11v2.55l4.1,1.22Z"/><path class="cls-24" d="M353.9,683.18a55.05,55.05,0,0,1-16.63,9.53c-15.08-.11-29.39-.55-42.58-1.33a56.81,56.81,0,0,1-17.07-11.64c18,2,39.47,3.11,62.75,3.33l.78.44.77-.44h7c1.55.11,3.21.11,5,.11Zm-78.5-5.77a63.41,63.41,0,0,1-6.1-8.2c11.64,3.88,30.6,3.88,53.22-.44l-.89,3.76c-17.85,4.22-33.81,5.77-46.23,4.88Zm-7.32-10.09a55.59,55.59,0,0,1-5.65-14.63,205.55,205.55,0,0,0,24.94-3.44l-4.76,8.54,3,5.43c-6.1,1.55-11.86,2.88-17.52,4.1Zm7.54-66.3c.78-.88,1.55-1.66,2.44-2.55q11.31.51,23.28.67l.67,1.11-1.11,2.88-8.65-.66L290.81,600l-5.32,1.33-.11.44a87.52,87.52,0,0,1-9.76-.78Zm64.08,66.75,2.44-2.66-1-.67c.44-.11.88-.22,1.44-.33,1.55-.44,3-.89,4.54-1.33l-1,2.44.34.44c-2.44.67-4.55,1.44-6.77,2.11ZM307.33,652l-2.22-1.22-1.22,1v1.89l2.22.88,2.22-2.77Z"/><path class="cls-25" d="M317.53,582.62a56.81,56.81,0,0,1,17.07,111,56.79,56.79,0,0,0-21.28-109.43,58,58,0,0,0-17.08,2.55,56.87,56.87,0,0,1,21.29-4.1Z"/><path class="cls-26" d="M1593.75,654.8a78,78,0,1,0-77.94-78.06,78.17,78.17,0,0,0,77.94,78.06Z"/><path class="cls-27" d="M1593.75,498.8a78,78,0,1,1,0,156c-7.87-2.11-24.39-3.44-21.73-10.76,1.33-3.66,11.75,1.44,22.06,2.33,13.75,1,28.16-1.77,29.83-6.21,2.32-6.65-14.19-2.22-33.26-3.21-22.62-1.22-48.57-7.88-47.9-18.41.55-8,23.28,2.33,45.68,4.33,22.84,2.1,45.34-4.22,46.56-17.52,1.22-13.53-20.84-10.09-46.34-10.65-23.84-.55-54.1-8.64-55.1-23.06-1.11-15.52,23.28-9.09,46.34-9.53,23.28-.44,45.35-7.87,41.24-23.39-2.21-8.43-16.07-3.11-33.26-2.33s-38-2.89-39.35-10c-2.44-13.31,28.82-25.94,45.23-27.61Z"/><path class="cls-25" d="M1593.75,498.8c2.55,0,5.1.11,7.54.33h-1.77A78.07,78.07,0,0,0,1592,654.91a78.07,78.07,0,0,1,1.77-156.11Z"/><path class="cls-28" d="M1574.13,881.19c130.6,0,241.14,86.48,277.28,205.33H1297c36-118.85,146.46-205.33,277.18-205.33Z"/><path class="cls-29" d="M1826.58,1028.76a284.26,284.26,0,0,1,24.72,57.76H1309.59c40.14-111.75,147.13-191.69,272.63-191.69,102.78,0,192.91,53.44,244.36,133.93Z"/><path class="cls-30" d="M1810,1025.65c7.65,13.53,13.85,45.79,18.51,60.87H1424.67c20.4-56.76,47.46-36,102.78-59.54,25.83-11,70.62-83.37,100.45-83.37,28.6,0,56.54,20,81.49,30,41.91,17,76.5,14.41,100.56,52Zm-302.79-98.78a4.35,4.35,0,0,1,4.32,4.43,4.43,4.43,0,0,1-4.32,4.44,4.44,4.44,0,0,1,0-8.87Zm80-15.19a5.16,5.16,0,0,1,0,10.31,5.16,5.16,0,0,1,0-10.31Zm-20.29,23.06a7.15,7.15,0,0,1,7.1,7.1,7,7,0,1,1-14.09,0,7,7,0,0,1,7-7.1Zm-119.3,69.41a10.87,10.87,0,1,1-10.75,10.86,10.93,10.93,0,0,1,10.75-10.86Zm-53.21-3.66a22.62,22.62,0,1,1-22.29,22.61c.11-12.52,10.09-22.61,22.29-22.61Z"/><path class="cls-31" d="M567.43,295.47a17,17,0,1,0-17-17,17,17,0,0,0,17,17Z"/><path class="cls-32" d="M576.74,264.31a17,17,0,0,1-9.31,31.16,12.26,12.26,0,0,1-2-.11,17,17,0,0,1,9.32-31.16c.66,0,1.33.11,2,.11Z"/><path class="cls-33" d="M970.11,660.12c64.41,0,116.86-52.55,116.86-116.86S1034.52,426.4,970.11,426.4,853.25,479,853.25,543.26s52.44,116.86,116.86,116.86Z"/><path class="cls-34" d="M970.11,635.17a91.91,91.91,0,1,0-91.91-91.91,92.1,92.1,0,0,0,91.91,91.91Z"/><path class="cls-35" d="M970.11,615a71.73,71.73,0,1,0-71.73-71.73A71.85,71.85,0,0,0,970.11,615Z"/><path class="cls-36" d="M970.11,605.35A62.09,62.09,0,1,0,908,543.26a62.2,62.2,0,0,0,62.09,62.09Z"/><path class="cls-37" d="M1365,210.54a31.16,31.16,0,1,0-31.16-31.15A31.18,31.18,0,0,0,1365,210.54Z"/><path class="cls-38" d="M1383,204.89a30.6,30.6,0,0,1-18,5.65,31.18,31.18,0,0,1-31.16-31.15A30.52,30.52,0,0,1,1337,166a30.67,30.67,0,0,1,18-5.76,31.18,31.18,0,0,1,31.15,31.15,30.8,30.8,0,0,1-3.1,13.53Zm-10-46a2.1,2.1,0,0,1,2.11,2.1,2.19,2.19,0,0,1-2.11,2.11,2.11,2.11,0,0,1-2.11-2.11,2,2,0,0,1,2.11-2.1Zm13,8.87a.78.78,0,1,1,0,1.55.85.85,0,0,1-.78-.78.84.84,0,0,1,.78-.77Z"/><path class="cls-37" d="M1354.16,164.86a3.33,3.33,0,0,1,0,6.66,3.33,3.33,0,0,1,0-6.66Zm9.65,26.06a.78.78,0,1,1-.78.77.75.75,0,0,1,.78-.77Zm5.43-20.4a.78.78,0,1,1-.78.77.84.84,0,0,1,.78-.77Zm9.2,10.53a.78.78,0,1,1,0,1.55.83.83,0,0,1-.77-.77.93.93,0,0,1,.77-.78Zm-4.66,15.3a1.52,1.52,0,0,1,1.56,1.55,1.56,1.56,0,1,1-3.11,0,1.52,1.52,0,0,1,1.55-1.55Zm-13.85,8.2a1.62,1.62,0,0,1,1.66,1.56,1.71,1.71,0,0,1-1.66,1.66,1.62,1.62,0,0,1-1.56-1.66,1.52,1.52,0,0,1,1.56-1.56Zm21.39-5a2.18,2.18,0,0,1,2.11,2.1,2.11,2.11,0,0,1-2.11,2.11,2,2,0,0,1-2.1-2.11,2.17,2.17,0,0,1,2.1-2.1Zm-7.09-24.29a2.18,2.18,0,0,1,2.1,2.11,2.11,2.11,0,1,1-4.21,0,2,2,0,0,1,2.11-2.11Zm-29.38,1.89a2.11,2.11,0,1,1-2.11,2.11,2.19,2.19,0,0,1,2.11-2.11Z"/><path class="cls-39" d="M342.14,1033.86a5.81,5.81,0,0,1,3,.77c.88.56,106.43-59.2,107-58.31s-103.78,62.53-103.78,63.75a6.1,6.1,0,1,1-12.19,0,6,6,0,0,1,6-6.21Z"/><path class="cls-40" d="M342.14,1044.72a4.77,4.77,0,1,0,0-9.53,4.73,4.73,0,0,0-4.76,4.77,4.79,4.79,0,0,0,4.76,4.76Z"/><path class="cls-41" d="M341.81,1043.62a3.22,3.22,0,1,0-3.21-3.22,3.23,3.23,0,0,0,3.21,3.22Z"/><path class="cls-39" d="M473.19,963.46c.22-.11,162.76-94.58,163-94.24s-161.54,95.9-161.87,96.12c-2.22,1.33-3.1-.66-1.11-1.88Z"/><path class="cls-28" d="M0,23.5c100.78,78.17,165.75,200.35,165.75,337.82S100.78,621,0,699.14Z"/><path class="cls-42" d="M0,654.35V30.05A425.64,425.64,0,0,1,135.59,342.14,425.89,425.89,0,0,1,0,654.35Z"/><path class="cls-43" d="M0,517.1V51.89C20.84,71.4,52.44,99.45,66.63,124.51c23.4,41.13,11.42,69,11.42,119.62,0,30.05,27.72,99.9,21.07,129.5C87.7,424.41,73.17,487.27,0,517.1Z"/><path class="cls-36" d="M714,127.94a2.74,2.74,0,0,0,2.77-2.77,2.65,2.65,0,0,0-2.77-2.66,2.72,2.72,0,1,0,0,5.43Z"/><path class="cls-36" d="M535.17,95.24a2.78,2.78,0,1,0-2.77-2.77,2.82,2.82,0,0,0,2.77,2.77Z"/><path class="cls-36" d="M464,314.32a2.78,2.78,0,1,0-2.77-2.78,2.82,2.82,0,0,0,2.77,2.78Z"/><path class="cls-36" d="M616.66,592.38a2.78,2.78,0,1,0-2.78-2.78,2.83,2.83,0,0,0,2.78,2.78Z"/><path class="cls-36" d="M469.42,727.75a2.72,2.72,0,0,0,2.77-2.66,2.82,2.82,0,0,0-2.77-2.77,2.72,2.72,0,1,0,0,5.43Z"/><path class="cls-36" d="M527,738.72a2.77,2.77,0,1,0-2.77-2.77,2.82,2.82,0,0,0,2.77,2.77Z"/><path class="cls-36" d="M765.11,943.94a2.77,2.77,0,1,0-2.77-2.77,2.74,2.74,0,0,0,2.77,2.77Z"/><path class="cls-36" d="M691.27,993.28a2.74,2.74,0,0,0,2.77-2.77,2.65,2.65,0,0,0-2.77-2.66,2.72,2.72,0,1,0,0,5.43Z"/><path class="cls-36" d="M201.12,768.77a2.77,2.77,0,1,0-2.77-2.77,2.89,2.89,0,0,0,2.77,2.77Z"/><path class="cls-36" d="M888.4,716.77a2.77,2.77,0,1,0-2.77-2.77,2.74,2.74,0,0,0,2.77,2.77Z"/><path class="cls-36" d="M1143,831.74a2.77,2.77,0,1,0-2.77-2.77,2.82,2.82,0,0,0,2.77,2.77Z"/><path class="cls-36" d="M1381.21,607.23a2.77,2.77,0,1,0-2.77-2.77,2.74,2.74,0,0,0,2.77,2.77Z"/><path class="cls-36" d="M1556.39,390.93a2.78,2.78,0,1,0-2.77-2.78,2.82,2.82,0,0,0,2.77,2.78Z"/><path class="cls-36" d="M1512.59,286.93a2.77,2.77,0,1,0-2.77-2.77,2.75,2.75,0,0,0,2.77,2.77Z"/><path class="cls-36" d="M1636.43,230.39a2.72,2.72,0,1,0,0-5.44,2.66,2.66,0,0,0-2.66,2.78,2.56,2.56,0,0,0,2.66,2.66Z"/><path class="cls-36" d="M1723.47,224a2.78,2.78,0,1,0-2.77-2.78,2.75,2.75,0,0,0,2.77,2.78Z"/><path class="cls-36" d="M1613.71,179.61a2.77,2.77,0,1,0-2.78-2.77,2.68,2.68,0,0,0,2.78,2.77Z"/><path class="cls-36" d="M1449.62,48.78a2.77,2.77,0,1,0-2.77-2.77,2.82,2.82,0,0,0,2.77,2.77Z"/><path class="cls-36" d="M1857.62,48.78a2.77,2.77,0,1,0-2.77-2.77,2.82,2.82,0,0,0,2.77,2.77Z"/><path class="cls-36" d="M1846.64,259.55a2.78,2.78,0,1,0-2.77-2.78,2.75,2.75,0,0,0,2.77,2.78Z"/><path class="cls-36" d="M1709.72,527.85a2.77,2.77,0,1,0-2.77-2.77,2.74,2.74,0,0,0,2.77,2.77Z"/><path class="cls-36" d="M1832.9,645.59a2.77,2.77,0,1,0-2.78-2.77,2.82,2.82,0,0,0,2.78,2.77Z"/><path class="cls-36" d="M1767.26,840a2.74,2.74,0,0,0,2.77-2.77,2.65,2.65,0,0,0-2.77-2.66,2.72,2.72,0,0,0-2.77,2.66,2.74,2.74,0,0,0,2.77,2.77Z"/><path class="cls-36" d="M1414,823.54a2.77,2.77,0,1,0-2.77-2.77,2.74,2.74,0,0,0,2.77,2.77Z"/><path class="cls-36" d="M1268.9,957.69a2.77,2.77,0,1,0-2.77-2.77,2.89,2.89,0,0,0,2.77,2.77Z"/><path class="cls-36" d="M1140.29,141.8A2.65,2.65,0,0,0,1143,139a2.72,2.72,0,1,0-2.66,2.77Z"/><path class="cls-36" d="M149.12,62.42a2.65,2.65,0,0,0,2.66-2.77,2.72,2.72,0,1,0-5.43,0,2.82,2.82,0,0,0,2.77,2.77Z"/><path class="cls-36" d="M164.86,77.05a4.49,4.49,0,0,0,4.55-4.54A4.57,4.57,0,0,0,164.86,68a4.64,4.64,0,0,0-4.54,4.55,4.56,4.56,0,0,0,4.54,4.54Z"/><path class="cls-36" d="M313.87,40.25a4.57,4.57,0,0,0,4.55-4.55,4.65,4.65,0,0,0-4.55-4.55,4.56,4.56,0,0,0-4.54,4.55,4.49,4.49,0,0,0,4.54,4.55Z"/><path class="cls-36" d="M368.64,92.24a4.64,4.64,0,0,0,4.55-4.54,4.57,4.57,0,0,0-4.55-4.55,4.55,4.55,0,0,0,0,9.09Z"/><path class="cls-36" d="M714.89,66.3a4.56,4.56,0,0,0,4.54-4.55,4.49,4.49,0,0,0-4.54-4.54,4.55,4.55,0,1,0,0,9.09Z"/><path class="cls-36" d="M299.24,424a4.56,4.56,0,0,0,4.54-4.55,4.64,4.64,0,0,0-4.54-4.55,4.57,4.57,0,0,0-4.55,4.55,4.5,4.5,0,0,0,4.55,4.55Z"/><path class="cls-36" d="M638.72,804.58a4.57,4.57,0,0,0,4.55-4.55,4.64,4.64,0,0,0-4.55-4.54,4.55,4.55,0,1,0,0,9.09Z"/><path class="cls-36" d="M63.75,979.75a4.55,4.55,0,1,0,0-9.09,4.65,4.65,0,0,0-4.55,4.55,4.56,4.56,0,0,0,4.55,4.54Z"/><path class="cls-36" d="M1115.13,1015.34a4.49,4.49,0,0,0,4.54-4.54,4.56,4.56,0,0,0-4.54-4.55,4.65,4.65,0,0,0-4.55,4.55,4.49,4.49,0,0,0,4.55,4.54Z"/><path class="cls-36" d="M1326.44,533.5A4.56,4.56,0,0,0,1331,529a4.5,4.5,0,0,0-4.55-4.55,4.55,4.55,0,0,0,0,9.09Z"/><path class="cls-36" d="M1764.6,754.47a4.5,4.5,0,0,0,4.55-4.55,4.56,4.56,0,0,0-4.55-4.54,4.64,4.64,0,0,0-4.55,4.54,4.57,4.57,0,0,0,4.55,4.55Z"/><path class="cls-36" d="M1041,251.78a4.56,4.56,0,0,0,4.55-4.54,4.5,4.5,0,0,0-4.55-4.55,4.57,4.57,0,0,0-4.54,4.55,4.49,4.49,0,0,0,4.54,4.54Z"/><path class="cls-36" d="M1758.5,78.16a4.64,4.64,0,0,0,4.55-4.54,4.55,4.55,0,1,0-9.09,0,4.63,4.63,0,0,0,4.54,4.54Z"/><path class="cls-36" d="M754.69,498.8a1.89,1.89,0,1,0-1.89-1.88,1.87,1.87,0,0,0,1.89,1.88Z"/><path class="cls-36" d="M752.8,181.72a2,2,0,0,0,1.89-1.89A1.87,1.87,0,0,0,752.8,178a1.89,1.89,0,0,0,0,3.77Z"/><path class="cls-36" d="M1071.78,76a2,2,0,0,0,1.88-1.89,1.86,1.86,0,0,0-1.88-1.88,1.8,1.8,0,0,0-1.89,1.88,1.88,1.88,0,0,0,1.89,1.89Z"/><path class="cls-36" d="M1460.6,333.27a1.89,1.89,0,1,0-1.89-1.88,1.8,1.8,0,0,0,1.89,1.88Z"/><path class="cls-36" d="M1737.1,333.27a1.94,1.94,0,0,0,1.89-1.88,1.88,1.88,0,0,0-1.89-1.89,2,2,0,0,0-1.88,1.89,1.8,1.8,0,0,0,1.88,1.88Z"/><path class="cls-36" d="M1805.51,577a1.89,1.89,0,1,0,0-3.77,1.89,1.89,0,0,0,0,3.77Z"/><path class="cls-36" d="M1156.59,598.92a1.89,1.89,0,1,0,0-3.77,1.89,1.89,0,0,0,0,3.77Z"/><path class="cls-36" d="M1263.47,812.45a1.89,1.89,0,1,0-1.89-1.88,1.87,1.87,0,0,0,1.89,1.88Z"/><path class="cls-36" d="M475,453.79a1.89,1.89,0,0,0,0-3.77,2,2,0,0,0-1.89,1.88,1.88,1.88,0,0,0,1.89,1.89Z"/><path class="cls-36" d="M285.93,239.59a1.89,1.89,0,1,0-1.88-1.89,1.87,1.87,0,0,0,1.88,1.89Z"/><path class="cls-36" d="M280.5,377.18a1.89,1.89,0,1,0-1.88-1.89,1.94,1.94,0,0,0,1.88,1.89Z"/><path class="cls-36" d="M176.5,568.76a1.89,1.89,0,1,0,0-3.77,1.87,1.87,0,0,0-1.88,1.89,1.81,1.81,0,0,0,1.88,1.88Z"/><path class="cls-36" d="M239.26,197.46a1.87,1.87,0,0,0,1.88-1.89,1.89,1.89,0,0,0-3.77,0,1.88,1.88,0,0,0,1.89,1.89Z"/><path class="cls-36" d="M412,360.77a2,2,0,0,0,1.89-1.89A1.87,1.87,0,0,0,412,357a1.94,1.94,0,0,0-1.88,1.88,1.8,1.8,0,0,0,1.88,1.89Z"/><path class="cls-36" d="M215.2,970.77a1.89,1.89,0,1,0-1.89-1.88,1.87,1.87,0,0,0,1.89,1.88Z"/><path class="cls-36" d="M603.57,1042.4a2,2,0,0,0,1.89-1.89,1.87,1.87,0,0,0-1.89-1.88,1.94,1.94,0,0,0-1.88,1.88,1.87,1.87,0,0,0,1.88,1.89Z"/><path class="cls-36" d="M1876.69,981.08a1.88,1.88,0,1,0-1.89-1.88,1.93,1.93,0,0,0,1.89,1.88Z"/><path class="cls-36" d="M1477.78,717.44a1.89,1.89,0,1,0,0-3.77,1.89,1.89,0,0,0,0,3.77Z"/></g></g></svg>