<svg xmlns="http://www.w3.org/2000/svg" viewBox="0 0 39.54 50"><defs><style>.cls-1{fill:#f7941e;}.cls-2{fill:#db6a1d;}.cls-3{fill:#faa819;}</style></defs><title>meteor</title><g id="Calque_2" data-name="Calque 2"><g id="Calque_1-2" data-name="Calque 1"><path class="cls-1" d="M24,42.64c.27.61-.43,3,.16,4.32s1.22,1.56,2.77,2.14,3.19,1.16,4.05.77,2-1.54,3.86-2.35,1.65-.74,3.14-2.33,1.9-3,1.38-4.15-1.44-1.5-2.57-1.95l-2.65-1-3.27-1.27c-.95-.36-1.4-1.4-2.47-1s-1.85-.07-2.26,1-1.15.86-1.42,1.51-.36.43-.05,1.13.73.95.59,1.31S23.64,42,24,42.64Z"/><path class="cls-2" d="M36.72,39.09l-2.64-1L30.8,36.81c-.95-.36-1.4-1.4-2.46-1s-1.85-.07-2.26,1-1.15.86-1.42,1.51-.36.43-.05,1.13.73.95.59,1.31S23.64,42,23.93,42.64s-.43,3,.16,4.32c0,0,.36.56,1.49-.66a14.44,14.44,0,0,1,4.18-2.6,11.52,11.52,0,0,1,3-.38c1.5-.14,2.49.29,2.9-.77S38.87,39.93,36.72,39.09Z"/><path class="cls-3" d="M38.06,40c.22-.13.34-.36.25-.5l-3.66-5.62c-.09-.14-.34-.14-.57,0h0c-.23.14-.34.36-.25.5L37.49,40c.09.12.34.12.57,0Z"/><path class="cls-3" d="M33.38,32.74a.4.4,0,0,0,.2-.56L29.2,25.4a.44.44,0,0,0-.59,0h0a.43.43,0,0,0-.2.57l4.38,6.78c.09.16.36.18.59,0Z"/><path class="cls-3" d="M27.78,24.09c.22-.14.36-.32.33-.36l-1.67-2.58c0-.07-.25,0-.47.16h0c-.23.13-.36.31-.32.36l1.67,2.58s.23,0,.46-.16Z"/><path class="cls-3" d="M35.3,39.68a.44.44,0,0,0,.2-.59l-4.74-7.32a.45.45,0,0,0-.61-.07h0a.44.44,0,0,0-.2.59l4.74,7.32a.45.45,0,0,0,.61.07Z"/><path class="cls-3" d="M29,30a.5.5,0,0,0,.11-.7l-6.48-10a.5.5,0,0,0-.68-.18h0a.49.49,0,0,0-.11.7l6.48,10A.51.51,0,0,0,29,30Z"/><path class="cls-3" d="M20.73,17.17c.22-.13.36-.31.29-.4l-2.19-3.39c0-.09-.27,0-.5.11h0c-.23.13-.36.32-.29.41l2.19,3.39c0,.06.27,0,.5-.12Z"/><path class="cls-3" d="M16.93,11.32c.23-.14.36-.32.32-.41l-2.2-3.39c0-.09-.27,0-.49.12h0c-.23.13-.37.31-.32.4l2.19,3.39c.07.07.27,0,.5-.11Z"/><path class="cls-3" d="M31,37.35a.46.46,0,0,0,.18-.61l-5.11-7.88a.46.46,0,0,0-.63-.09h0a.44.44,0,0,0-.18.61l5.1,7.88a.48.48,0,0,0,.64.09Z"/><path class="cls-3" d="M35.28,43.91c.22-.14.34-.34.27-.46L32.7,39.07c-.07-.11-.29-.07-.52.07h0c-.22.13-.34.34-.27.45L34.76,44c0,.12.29.09.52-.06Z"/><path class="cls-3" d="M24.12,26.69a.46.46,0,0,0,.13-.66l-6-9.22a.45.45,0,0,0-.65-.13h0a.45.45,0,0,0-.14.65l6,9.22a.48.48,0,0,0,.66.14Z"/><path class="cls-3" d="M30.28,41a.44.44,0,0,0,.16-.63l-5.53-8.54a.47.47,0,0,0-.64-.12h0a.46.46,0,0,0-.15.64l5.53,8.54a.44.44,0,0,0,.63.11Z"/><path class="cls-3" d="M22.83,29.49c.22-.14.34-.34.27-.45l-3-4.61c-.07-.12-.32-.09-.52.06h0c-.23.14-.34.34-.28.46l3,4.61c0,.09.29.06.52-.07Z"/><path class="cls-3" d="M9.47,8.9c.23-.13.36-.34.3-.4L7.46,5c0-.09-.27,0-.5.11H7c-.22.14-.36.34-.29.41L9,9c.07.06.28,0,.5-.12Z"/><path class="cls-3" d="M18.35,22.6a.5.5,0,0,0,.12-.7L11.91,11.77a.5.5,0,0,0-.68-.18h0a.5.5,0,0,0-.11.7l6.55,10.13a.51.51,0,0,0,.68.18Z"/><path class="cls-3" d="M25.92,39.73a.41.41,0,0,0,.21-.55l-4.39-6.75a.44.44,0,0,0-.59,0h0c-.22.14-.31.39-.2.54l4.39,6.76a.41.41,0,0,0,.58,0Z"/><path class="cls-3" d="M19.35,29.58a.46.46,0,0,0,.13-.66l-6-9.22a.46.46,0,0,0-.66-.13h0a.45.45,0,0,0-.13.65l6,9.22a.5.5,0,0,0,.66.14Z"/><path class="cls-3" d="M11.51,17.47a.43.43,0,0,0,.2-.57L7.26,10a.43.43,0,0,0-.59,0h0a.4.4,0,0,0-.2.56l4.45,6.87c.11.18.36.2.59,0Z"/><path class="cls-3" d="M5.09,7.57A.43.43,0,0,0,5.29,7L.84.13a.44.44,0,0,0-.59,0h0a.42.42,0,0,0-.2.56L4.5,7.52a.4.4,0,0,0,.59.05Z"/><path class="cls-3" d="M26.33,45.15a.45.45,0,0,0,.2-.57l-4.67-7a.46.46,0,0,0-.61,0h0a.45.45,0,0,0-.21.56l4.68,7a.42.42,0,0,0,.61,0Z"/><path class="cls-3" d="M19.89,35.34a.44.44,0,0,0,.13-.65l-6-9.36a.49.49,0,0,0-.66-.16h0a.48.48,0,0,0-.13.66l6.05,9.35a.48.48,0,0,0,.66.16Z"/><path class="cls-3" d="M11.91,23a.42.42,0,0,0,.21-.56L7.62,15.5a.44.44,0,0,0-.59,0H7a.41.41,0,0,0-.2.56L11.32,23a.43.43,0,0,0,.59,0Z"/><path class="cls-3" d="M5.63,13.31c.23-.14.34-.36.27-.48L2.85,8.11C2.78,8,2.53,8,2.31,8.16h0c-.23.13-.34.36-.27.47l3.05,4.72c.07.12.31.09.54,0Z"/><path class="cls-3" d="M24.23,46.41a.48.48,0,0,0,.16-.65L18.6,36.83A.48.48,0,0,0,18,36.7h0a.46.46,0,0,0-.16.65l5.78,8.93a.5.5,0,0,0,.66.13Z"/><path class="cls-3" d="M16.75,34.87a.46.46,0,0,0,.13-.66l-6-9.22a.46.46,0,0,0-.66-.13h0a.45.45,0,0,0-.13.65l6,9.22a.48.48,0,0,0,.66.14Z"/><path class="cls-3" d="M8.91,22.78c.22-.14.34-.34.29-.43l-2.58-4c-.06-.09-.29-.07-.52.09h0c-.22.14-.36.34-.29.43l2.58,4c.06.09.29,0,.52-.09Z"/></g></g></svg>