<svg xmlns="http://www.w3.org/2000/svg" viewBox="0 0 48.81 90.26"><defs><style>.cls-1{fill:#fcb116;}.cls-2{fill:#ffcb05;}.cls-3{fill:#fff200;}.cls-4{fill:#f4868b;}.cls-5{fill:#f05b6f;}.cls-6{fill:#cd4c5e;}.cls-7{fill:#53316b;}.cls-8{fill:#492960;}.cls-9{fill:#fff;}.cls-10{fill:#d5d7d8;}.cls-11{fill:#38194b;}</style></defs><title>spaceship_01</title><g id="Calque_2" data-name="Calque 2"><g id="Calque_1-2" data-name="Calque 1"><path class="cls-1" d="M21.08,26s-3.66-9.21-3.61-11,2.12-1.59,2.56-.14c0,0-2.58-5.27,1-5.76,0,0-1.81-4.87,2.19-4.77,0,0-.77-4.95,1.46-4.24s.78,4.6.78,4.6,4-.46,2.89,4.26c0,0,3.48.61.75,5.79,0,0,6-.55-2,11.35Z"/><path class="cls-2" d="M21.08,26S17.84,17.7,19,16.63,21.43,19,21.43,19,19,13.23,20,12.27s1.68,2.5,1.68,2.5-1.74-8.48.39-8.43a7.09,7.09,0,0,1,.79,3s-.18-7,1.56-7,.71,6.87.71,6.87,0-4.49,1.13-3.29,1,6.15,1,6.15,0-1.58,1-1.56-.68,6.85-.68,6.85,1-1.79,1.93-.83S28.07,25.11,27,26.12Z"/><path class="cls-3" d="M23.3,26s-.86-7.75.73-9.28,1.36,9.32,1.36,9.32Z"/><path class="cls-4" d="M35.42,58a6.11,6.11,0,0,0,2.33,1S46.58,43.66,48.81,27.6l-1.66-.75a25,25,0,0,1-3.11,2A54.23,54.23,0,0,1,35.42,58Z"/><path class="cls-5" d="M35.42,58c5.66-8.46,8.5-19,8.64-29.19a24.65,24.65,0,0,1-11.62,3.37C25.21,32.23,28.11,52.9,35.42,58Z"/><path class="cls-5" d="M13.76,57.55c6.94-5.63,9.67-25.37,2.63-25.39a23.66,23.66,0,0,1-10.77-3C6,39.36,7.91,49.31,13.76,57.55Z"/><path class="cls-6" d="M0,27.43C2.12,43.5,10.87,59,10.87,59a6.43,6.43,0,0,0,2.89-1.4C7.91,49.31,6,39.36,5.62,29.16a28.53,28.53,0,0,1-3.89-2.45A15.76,15.76,0,0,0,0,27.43Z"/><path class="cls-7" d="M31,32.2V29.4l-7.15,0c.08.94.1,1.9.13,2.82Z"/><path class="cls-8" d="M17.61,32.21h6.46c0-.92-.1-1.9-.14-2.82H17.62Z"/><path class="cls-5" d="M17.58,29.4l6.31,0c-.07-1.28-.19-2.58-.3-3.88.11,1.3.23,2.6.3,3.88l7.15,0-2.23-4.6-9.17-.08Z"/><path class="cls-9" d="M26.63,88.62a7.35,7.35,0,0,0,1-2.11l9.28-25.94.86-1.46c-6.22-10-5.54-24-5.33-26.82H24c.77,18-1.47,35.47,1.81,53.86A9.94,9.94,0,0,0,26.63,88.62Z"/><path class="cls-10" d="M16.2,32.23c.22,2.85.85,16.79-5.33,26.72l.84,1.48L20.2,86.12s.84,4.13,3.64,4.14a3.45,3.45,0,0,0,2.79-1.64,9.86,9.86,0,0,1-.79-2.56C22.56,67.67,24.79,50.16,24,32.2H17.61Z"/><path class="cls-11" d="M19.4,67.79c-.15,4,1,7.13,5.05,7.23-.64-8.14-.47-16.17-.37-24.18C23.58,52,19.66,61.11,19.4,67.79Z"/><path class="cls-11" d="M24.45,75c.14,0,.31,0,.49,0,4.2-.1,5.33-3.15,5.07-7-.52-7.19-5.89-17.26-5.89-17.26l-.05.12C24,58.85,23.81,66.88,24.45,75Z"/><path class="cls-7" d="M19.54,66.26a6.47,6.47,0,0,0,4.59,2.92C23.9,63,24,57,24.08,50.84,23.62,51.88,20.22,59.76,19.54,66.26Z"/><path class="cls-7" d="M24.13,69.18a5.87,5.87,0,0,0,3-.54,4.85,4.85,0,0,0,2.51-3.22c-1.3-6.79-5.54-14.71-5.54-14.71l-.06.13C24,57,23.9,63,24.13,69.18Z"/><path class="cls-8" d="M19.54,66.26c0,.53-.08,1.06-.1,1.55.23,3.16,1.53,5.5,4.93,5.62-.1-1.44-.18-2.83-.24-4.25A6.43,6.43,0,0,1,19.54,66.26Z"/><path class="cls-8" d="M24.32,73.42c.21,0,.39,0,.6,0,3.61-.12,5-2.36,5.11-5.45-.08-.84-.2-1.69-.35-2.56a4.69,4.69,0,0,1-2.51,3.22,5.87,5.87,0,0,1-3,.54C24.19,70.6,24.25,72,24.32,73.42Z"/><circle class="cls-9" cx="25.66" cy="71.56" r="1.28" transform="translate(-50.13 65.57) rotate(-65.75)"/></g></g></svg>