<svg xmlns="http://www.w3.org/2000/svg" viewBox="0 0 62.89 90"><defs><style>.cls-1{fill:#df8e27;}.cls-2{fill:#f5ce16;}.cls-3{fill:#e88b25;}.cls-4{fill:#3e1f53;}.cls-5{fill:none;}.cls-6{fill:#fbb41a;}.cls-7{fill:#ec008c;}.cls-8{fill:#900656;}.cls-9{fill:#6e004e;}.cls-10{fill:#44054f;}.cls-11{fill:#ed0a71;}.cls-12{fill:#f79c1f;}.cls-13{fill:#ee4d9b;}.cls-14{fill:#541761;}.cls-15{fill:#fcfcf8;}</style></defs><title>spaceship_02</title><g id="Calque_2" data-name="Calque 2"><g id="Calque_1-2" data-name="Calque 1"><path class="cls-1" d="M35.08,17.25s3.84-3.32,3.57-6.43-.89-1.78-1.47-1c0,0-.7.51-.24-1.56s-.19-4-.88-3.08-.15,1.59-.58,1.67-2-4.72-3.1-4.56-.4,2-1.14,1.9S30.21-.36,29.18,0s-.27,4.73-.76,4.8S27.52,2,26.54,3.27a6.28,6.28,0,0,0-1.22,4.81s-.2.44-.64-.48-1.29-.93-1,1.08,1.35,3.07.92,3.14S23.33,9.76,23,10.25s-.67,2.38,2.21,5.24c0,0,2,2.16,2.1,2.84Z"/><path class="cls-2" d="M33.94,17.4s2.51-2.55,2.26-5-.63-1.42-1-.83c0,0-.46.41-.18-1.22s-.18-3.14-.64-2.44S34.31,9.18,34,9.22,32.6,5.49,31.9,5.6s-.23,1.57-.72,1.45-.76-3.57-1.45-3.29-.09,3.7-.42,3.74S28.68,5.25,28,6.25A5.29,5.29,0,0,0,27.32,10s-.13.34-.44-.37-.88-.76-.64.83,1,2.44.65,2.47S26,11.3,25.77,11.68s-.39,1.84,1.56,4.13a11.12,11.12,0,0,1,1.45,2.25Z"/><path class="cls-3" d="M33.91,13.87c-.66.09-.61,1-.87.37s-.25-2.94-.74-2.54c-.75.62-1-1.84-1.35-1.32s-.51,1.32-.76,1.66-1.08-.3-1,.44.9,1.85.64,2.2-1.19-.41-1.12.11a32.49,32.49,0,0,0,1.18,3.12l3.3-.39S34.58,13.77,33.91,13.87Z"/><path class="cls-4" d="M25.19,79a6.08,6.08,0,1,1,6.09,6.06A6.08,6.08,0,0,1,25.19,79Z"/><path class="cls-5" d="M36.12,79a4.86,4.86,0,1,0-4.84,4.87A4.85,4.85,0,0,0,36.12,79Z"/><path class="cls-6" d="M31.64,90c1.82,0,4.9-4.92,7.68-9.79S41.64,72,41.64,72H21.19s-1.68,1.52,1.74,7.52C26.58,86,29.8,90,31.64,90ZM26.41,79a4.86,4.86,0,1,1,4.87,4.84A4.84,4.84,0,0,1,26.41,79Z"/><path class="cls-7" d="M52,56c0-.74.84-1.36,1.87-1.36h0c1,0,1.88.61,1.87,1.37l0,5.46c0,.75-.82,6.67-1.84,6.68h0c-1,0-1.87-5.93-1.88-6.67Z"/><path class="cls-8" d="M48.64,61.47c0-.42.45-.76,1-.76h0c.56,0,1,.34,1,.74v3c0,.41-.43,3.66-1,3.67h0c-.56,0-1-3.25-1-3.67Z"/><rect class="cls-9" x="46.87" y="59.99" width="5.14" height="2.01" transform="translate(-0.18 0.14) rotate(-0.17)"/><path class="cls-7" d="M11,56.12c0-.75-.83-1.36-1.86-1.37h0c-1,0-1.87.62-1.86,1.38l0,5.46c0,.74.86,6.68,1.88,6.67h0c1,0,1.84-5.93,1.84-6.68Z"/><path class="cls-8" d="M14.35,61.57c0-.41-.45-.74-1-.73h0a.9.9,0,0,0-1,.75v3c0,.41.46,3.66,1,3.65h0c.56,0,1-3.26,1-3.67Z"/><rect class="cls-9" x="10.99" y="60.57" width="5.14" height="1.6" transform="translate(-0.18 0.04) rotate(-0.17)"/><polygon class="cls-10" points="35.49 16.98 26.11 16.94 24.08 21.69 37.78 21.65 35.49 16.98"/><path class="cls-8" d="M20,70.29c0-1.37-.26-2.48,1.12-2.49l20.39-.06c1.37,0,1.12,1.1,1.13,2.48h0c0,1.37.26,2.48-1.11,2.49l-20.4.06c-1.38,0-1.11-1.1-1.13-2.48Z"/><path class="cls-11" d="M41.49,67.74h1.4s1,.3,2.23-1.95l10.4-18.26s.8-.63,0-2.05S44.14,26,44.14,26s-.16-.68-1.37-.69l-22.85.08s-.86-.12-1.49,1.14-11,19.35-11,19.35a2,2,0,0,0,0,2.11c.68,1.2,11.47,19.1,11.47,19.1s.18,1,1.89.68Z"/><path class="cls-8" d="M56.94,42,50.36,30.42a2.67,2.67,0,0,0-2-1.15H46l9.41,16.1,1.47-1.49A1.42,1.42,0,0,0,56.94,42Z"/><path class="cls-8" d="M6,42.06,12.5,30.42a2.73,2.73,0,0,1,2-1.17h2.37L7.58,45.41,6.09,43.94A1.45,1.45,0,0,1,6,42.06Z"/><path class="cls-12" d="M56.94,42l5.41-4.34s.53-.3.54-1.45S57.38,22,57.38,22s-.31-1.07-1.08-1.05h-2L56,31.13s.23.45-.83.83l-3,1.47Z"/><path class="cls-12" d="M6,42.18.54,37.87S0,37.57,0,36.43,5.45,22.17,5.45,22.17s.31-1.06,1-1.07H8.56L6.92,31.31s-.23.47.83.84l3,1.44Z"/><rect class="cls-8" x="20.53" y="21.67" width="21.26" height="3.72" transform="translate(-0.07 0.09) rotate(-0.17)"/><path class="cls-6" d="M40.78,42.51c0-.74.83-1.36,1.85-1.37h0c1,0,1.88.6,1.87,1.36l0,5.46c0,.75-.82,6.67-1.84,6.68h0c-1,0-1.87-5.92-1.88-6.67Z"/><path class="cls-6" d="M18.52,42.56c0-.74.83-1.36,1.85-1.37h0c1,0,1.88.6,1.87,1.37l0,5.45c0,.75-.82,6.67-1.84,6.68h0c-1,0-1.88-5.92-1.88-6.67Z"/><rect class="cls-9" x="38.84" y="46.48" width="1.95" height="2.01" transform="translate(-0.14 0.12) rotate(-0.17)"/><rect class="cls-9" x="22.15" y="46.52" width="2.64" height="2.01" transform="translate(-0.15 0.08) rotate(-0.18)"/><path class="cls-13" d="M23.83,47.05a7.76,7.76,0,1,1,7.77,7.73A7.73,7.73,0,0,1,23.83,47.05Z"/><path class="cls-8" d="M25.13,47a6.47,6.47,0,1,1,6.49,6.45A6.47,6.47,0,0,1,25.13,47Z"/><path class="cls-9" d="M26.34,47.06a5.25,5.25,0,1,1,5.26,5.22A5.25,5.25,0,0,1,26.34,47.06Z"/><path class="cls-6" d="M29.93,48a1.87,1.87,0,0,1,1.85-1.87h0A1.87,1.87,0,0,1,33.66,48l0,7.49c0,1-.81,9.13-1.85,9.13h0c-1,0-1.89-8.11-1.9-9.13Z"/><path class="cls-10" d="M25.46,80.74A6.09,6.09,0,1,1,31.29,85,6.1,6.1,0,0,1,25.46,80.74Z"/><path class="cls-14" d="M25.46,80.74a6.09,6.09,0,0,1,11.43.55,6.09,6.09,0,0,1-11.43-.55Z"/><circle class="cls-15" cx="32.83" cy="82.12" r="1.32"/></g></g></svg>